# xmcd CD database file
#
# Track frame offsets:
#	150
#	6926
#	33574
#	62775
#	89784
#	133619
#	164914
#	201537
#	204262
#	219064
#	238017
#	253364
#	264795
#	289402
#	305570
#
# Disc length: 4393 seconds
#
# Revision: 1
# Processed by: cddbd v1.5.2PL0 Copyright (c) Steve Scherf et al.
# Submitted via: CDex 1.51
#
DISCID=ec11270f
DTITLE=Patrick Verbeke - Capturé Live - CD2
DYEAR=2005
DGENRE=Blues
TTITLE0=Blue Speeches (Live)
TTITLE1=Never Been To Mississippi (Live)
TTITLE2=Sweet Lou (Live)
TTITLE3=Si T'as Mal (Live)
TTITLE4=Wee Wee Hours (Live)
TTITLE5=Sweet Home Chicago (Live)
TTITLE6=Hoochie Coochie Man (Live)
TTITLE7=Boogimmick (Live)
TTITLE8=Feat.Luther Alison_You're the One (Live)
TTITLE9=Feat.Luther Alison_Fourty Four Blues (Live)
TTITLE10=Feat.Luther Alison_Good Morning Love (Live)
TTITLE11=Feat.Candye Kane_Gifted In The Ways Of Love (Live)
TTITLE12=Feat.Coco Robicheaux &Kenny Holladay_Walk With Thw Spirit (Live)
TTITLE13=Feat.Sue Foley_Train To Memphis (Live)
TTITLE14=Feat.Luther Alison_Si T'as Mal (Live)
EXTD=YEAR: 2005
EXTT0=
EXTT1=
EXTT2=
EXTT3=
EXTT4=
EXTT5=
EXTT6=
EXTT7=
EXTT8=
EXTT9=
EXTT10=
EXTT11=
EXTT12=
EXTT13=
EXTT14=
PLAYORDER=
